<?xml version="1.0" encoding="utf-8"?><!-- Uploaded to: SVG Repo, www.svgrepo.com, Generator: SVG Repo Mixer Tools -->
<svg width="800px" height="800px" viewBox="0 0 24 24" fill="none" xmlns="http://www.w3.org/2000/svg">
<path d="M8 5C7.44772 5 7 5.44772 7 6C7 6.55228 7.44772 7 8 7H12.2344L8.50386 9.13176C8.11017 9.35672 7.91712 9.81842 8.0335 10.2567C8.14988 10.6949 8.54657 11 9 11H13.8C13.9105 11 14 11.0895 14 11.2V13.5029C14 13.556 13.9789 13.6069 13.9414 13.6444L12.1414 15.4444C12.0633 15.5225 11.9367 15.5225 11.8586 15.4444L9.70711 13.2929C9.31658 12.9024 8.68342 12.9024 8.2929 13.2929C7.90237 13.6834 7.90237 14.3166 8.2929 14.7071L11.2929 17.7071C11.6834 18.0976 12.3166 18.0976 12.7071 17.7071L15.7071 14.7071C15.8946 14.5196 16 14.2652 16 14V10C16 9.44772 15.5523 9 15 9H12.7656L16.4961 6.86824C16.8898 6.64328 17.0829 6.18158 16.9665 5.74333C16.8501 5.30509 16.4534 5 16 5H8Z" fill="#0F0F0F"/>
<path fill-rule="evenodd" clip-rule="evenodd" d="M4.30602 1C2.48038 1 1.07799 2.61696 1.33617 4.42426L2.90519 15.4074C3.00668 16.1178 3.35946 16.7683 3.89953 17.2409L10.0245 22.6002C11.1556 23.5899 12.8444 23.5899 13.9755 22.6002L20.1005 17.2409C20.6405 16.7683 20.9933 16.1178 21.0948 15.4074L22.6638 4.42426C22.922 2.61696 21.5196 1 19.694 1H4.30602ZM3.31607 4.14142C3.23001 3.53899 3.69747 3 4.30602 3H19.694C20.3025 3 20.77 3.53899 20.6839 4.14142L19.1149 15.1245C19.0811 15.3613 18.9635 15.5782 18.7835 15.7357L12.6585 21.095C12.2815 21.4249 11.7185 21.4249 11.3415 21.095L5.21653 15.7357C5.03651 15.5782 4.91892 15.3613 4.88509 15.1245L3.31607 4.14142Z" fill="#0F0F0F"/>
</svg>