<svg width="48" height="48" viewBox="0 0 24 24" fill="#25314C" xmlns="http://www.w3.org/2000/svg"><path d="M18 14.419V16.7a2.028 2.028 0 0 1-.953 1.706 8.788 8.788 0 0 1-10.094 0A2.028 2.028 0 0 1 6 16.7v-2.281a.1.1 0 0 1 .148-.088L9.82 16.34a4.6 4.6 0 0 0 4.36 0l3.672-2.009a.1.1 0 0 1 .148.088Zm1.937-6.514-6.472-3.531a3.054 3.054 0 0 0-2.93 0L4.063 7.905a2.041 2.041 0 0 0 0 3.583l6.472 3.53a3.054 3.054 0 0 0 2.93 0l6.472-3.53-.687.374V16a.75.75 0 0 0 1.5 0v-5.329a2.039 2.039 0 0 0-.813-2.766Z" fill="#25314C"></path></svg>