<svg viewBox="0 0 720 1080" xmlns="http://www.w3.org/2000/svg"><g clip-path="url(#a)"><path fill="#5f0832" d="M0 0h720v1080H0z"/><path d="M720 0H0v1080h720z" fill="url(#b)"/><path d="M720 0H0v1080h720z" fill="url(#c)"/><path d="M720 0H0v1080h720z" fill="url(#d)"/><path d="M94.805 467.612c227.698-44.26 401.178-137.274 387.478-207.752s-209.39-91.731-437.088-47.472c-227.698 44.26-401.178 137.274-387.478 207.752s209.39 91.732 437.088 47.472" fill="url(#e)"/><path d="M720 0H0v1080h720z" fill="url(#f)"/><path d="M720 0H0v1080h720z" fill="url(#g)"/><path d="M720 0H0v1080h720z" fill="url(#h)"/><path d="M720 0H0v1080h720z" fill="url(#i)"/><path d="M720 0H0v1080h720z" fill="url(#j)"/><path d="M720 0H0v1080h720z" fill="url(#k)"/><path d="M720 0H0v1080h720z" fill="url(#l)"/><path d="M720 0H0v1080h720z" fill="url(#m)"/></g><defs><radialGradient id="c" cx="0" cy="0" r="1" gradientUnits="userSpaceOnUse" gradientTransform="matrix(532.8 0 0 799.2 122.4 97.2)"><stop stop-color="#ff007c"/><stop offset=".28" stop-color="#ef006d" stop-opacity=".92"/><stop offset=".61" stop-color="#d00056" stop-opacity=".42"/><stop offset="1" stop-color="#a7004b" stop-opacity="0"/></radialGradient><radialGradient id="d" cx="0" cy="0" r="1" gradientUnits="userSpaceOnUse" gradientTransform="matrix(345.6 0 0 518.4 374.4 183.6)"><stop stop-color="#ce0723"/><stop offset=".39" stop-color="#cd0027" stop-opacity=".7"/><stop offset=".72" stop-color="#9f002b" stop-opacity=".24"/><stop offset="1" stop-color="#7d002d" stop-opacity="0"/></radialGradient><radialGradient id="e" cx="0" cy="0" r="1" gradientUnits="userSpaceOnUse" gradientTransform="rotate(-11 1800.518 -193.489)scale(420 130)"><stop stop-color="#ce0723" stop-opacity=".8"/><stop offset=".42" stop-color="#ef0034" stop-opacity=".63"/><stop offset=".76" stop-color="#cd003f" stop-opacity=".24"/><stop offset="1" stop-color="#9d003f" stop-opacity="0"/></radialGradient><radialGradient id="f" cx="0" cy="0" r="1" gradientUnits="userSpaceOnUse" gradientTransform="matrix(345.6 0 0 518.4 0 594)"><stop stop-color="#e2709d" stop-opacity=".92"/><stop offset=".34" stop-color="#c34882" stop-opacity=".57"/><stop offset=".72" stop-color="#8e1b60" stop-opacity=".22"/><stop offset="1" stop-color="#6f164f" stop-opacity="0"/></radialGradient><radialGradient id="g" cx="0" cy="0" r="1" gradientUnits="userSpaceOnUse" gradientTransform="matrix(374.4 0 0 561.6 720 0)"><stop stop-color="#d4a5a8" stop-opacity=".52"/><stop offset=".4" stop-color="#a96f83" stop-opacity=".24"/><stop offset="1" stop-color="#6d426c" stop-opacity="0"/></radialGradient><radialGradient id="h" cx="0" cy="0" r="1" gradientUnits="userSpaceOnUse" gradientTransform="matrix(381.6 0 0 572.4 720 378)"><stop stop-color="#2b3c85" stop-opacity=".86"/><stop offset=".34" stop-color="#1d2b73" stop-opacity=".67"/><stop offset=".69" stop-color="#131550" stop-opacity=".35"/><stop offset="1" stop-color="#0c1149" stop-opacity="0"/></radialGradient><radialGradient id="i" cx="0" cy="0" r="1" gradientUnits="userSpaceOnUse" gradientTransform="matrix(396 0 0 594 525.6 475.2)"><stop stop-color="#070829" stop-opacity=".88"/><stop offset=".39" stop-color="#0b092e" stop-opacity=".73"/><stop offset=".73" stop-color="#16082f" stop-opacity=".31"/><stop offset="1" stop-color="#21072f" stop-opacity="0"/></radialGradient><radialGradient id="j" cx="0" cy="0" r="1" gradientUnits="userSpaceOnUse" gradientTransform="matrix(338.4 0 0 507.6 655.2 648)"><stop stop-color="#6b117c" stop-opacity=".78"/><stop offset=".43" stop-color="#51106c" stop-opacity=".49"/><stop offset=".76" stop-color="#340a51" stop-opacity=".23"/><stop offset="1" stop-color="#23073d" stop-opacity="0"/></radialGradient><radialGradient id="k" cx="0" cy="0" r="1" gradientUnits="userSpaceOnUse" gradientTransform="matrix(374.4 0 0 561.6 381.6 777.6)"><stop stop-color="#60083f" stop-opacity=".78"/><stop offset=".42" stop-color="#420630" stop-opacity=".5"/><stop offset="1" stop-color="#22031e" stop-opacity="0"/></radialGradient><radialGradient id="l" cx="0" cy="0" r="1" gradientUnits="userSpaceOnUse" gradientTransform="matrix(273.6 0 0 410.4 0 972)"><stop stop-color="#182697" stop-opacity=".74"/><stop offset=".45" stop-color="#0c1858" stop-opacity=".42"/><stop offset="1" stop-color="#07103d" stop-opacity="0"/></radialGradient><linearGradient id="b" x1="0" y1="0" x2="884.085" y2="718.768" gradientUnits="userSpaceOnUse"><stop stop-color="#f00040"/><stop offset=".27" stop-color="#57001d"/><stop offset=".55" stop-color="#411073"/><stop offset=".78" stop-color="#13051f"/><stop offset="1" stop-color="#010107"/></linearGradient><linearGradient id="m" x1="57.6" y1="378" x2="784.766" y2="781.981" gradientUnits="userSpaceOnUse"><stop stop-opacity="0"/><stop offset=".58" stop-opacity=".1"/><stop offset=".79" stop-opacity=".48"/><stop offset="1" stop-opacity=".96"/></linearGradient><clipPath id="a"><path fill="#fff" d="M0 0h720v1080H0z"/></clipPath></defs></svg>