<!DOCTYPE svg PUBLIC "-//W3C//DTD SVG 1.1//EN" "http://www.w3.org/Graphics/SVG/1.1/DTD/svg11.dtd">
<!-- Uploaded to: SVG Repo, www.svgrepo.com, Transformed by: SVG Repo Mixer Tools -->
<svg fill="#000000" height="800px" width="800px" version="1.1" id="Layer_1" xmlns="http://www.w3.org/2000/svg" xmlns:xlink="http://www.w3.org/1999/xlink" viewBox="-51.2 -51.2 614.40 614.40" xml:space="preserve">
<g id="SVGRepo_bgCarrier" stroke-width="0"/>
<g id="SVGRepo_tracerCarrier" stroke-linecap="round" stroke-linejoin="round"/>
<g id="SVGRepo_iconCarrier"> <g> <g> <path d="M493.714,0H274.286c0,8.319,0,84.971,0,94.903c0,14.069-15.265,22.86-27.427,15.837 c-19.885-11.477-45.716,2.515-45.716,26.403c0,23.834,25.777,37.912,45.716,26.403c12.187-7.034,27.427,1.791,27.427,15.837 v58.331h33.716c-3.407-37.132,25.433-73.143,66.855-73.143c41.123,0,70.292,35.688,66.855,73.143c7.543,0,62.708,0,70.288,0 V18.286C512,8.187,503.813,0,493.714,0z"/> </g> </g> <g> <g> <path d="M237.714,70.289c0-7.543,0-62.709,0-70.289H18.286C8.187,0,0,8.187,0,18.286v219.429c8.319,0,84.971,0,94.903,0 c13.995,0,22.897,15.197,15.837,27.427c-11.421,19.786,2.408,45.716,26.403,45.716c23.885,0,37.889-25.818,26.403-45.714 c-7.034-12.186,1.792-27.429,15.837-27.429h58.331v-33.718c-37.18,3.417-73.143-25.482-73.143-66.854 C164.571,95.367,200.978,66.907,237.714,70.289z"/> </g> </g> <g> <g> <path d="M417.097,274.286c-14.196,0-22.784-15.39-15.837-27.427c11.348-19.656-2.281-45.716-26.403-45.716 c-23.942,0-37.861,25.868-26.403,45.716c7.034,12.187-1.793,27.427-15.837,27.427h-58.331v33.704 c37.244-3.413,73.143,25.539,73.143,66.854c0,41.246-35.835,70.281-73.143,66.855V512h219.429 c10.099,0,18.286-8.187,18.286-18.286V274.286C503.68,274.286,427.03,274.286,417.097,274.286z"/> </g> </g> <g> <g> <path d="M265.142,348.442c-12.209,7.047-27.427-1.792-27.427-15.837v-58.319h-33.718c3.41,37.146-25.449,73.143-66.854,73.143 c-41.217,0-70.281-35.812-66.854-73.143c-7.545,0-62.709,0-70.289,0v219.429C0,503.813,8.187,512,18.286,512h219.429v-94.915 c0-14.069,15.265-22.86,27.427-15.837c19.956,11.518,45.716-2.589,45.716-26.403C310.857,351.01,285.079,336.934,265.142,348.442z "/> </g> </g> </g>
</svg>