<svg width="48" height="48" viewBox="0 0 24 24" fill="#25314C" xmlns="http://www.w3.org/2000/svg"><path d="M20.7 9.75H3.3a.3.3 0 0 0-.3.3V18a2.652 2.652 0 0 0 3 3h12a2.652 2.652 0 0 0 3-3v-7.95a.3.3 0 0 0-.3-.3ZM8.02 18a1 1 0 0 1-.01-2h.01a1 1 0 0 1 0 2Zm0-4a1 1 0 0 1-.01-2h.01a1 1 0 0 1 0 2Zm4 4a1 1 0 0 1-.01-2h.01a1 1 0 0 1 0 2Zm0-4a1 1 0 0 1-.01-2h.01a1 1 0 0 1 0 2Zm4 4a1 1 0 0 1-.01-2h.01a1 1 0 0 1 0 2Zm0-4a1 1 0 0 1-.01-2h.01a1 1 0 0 1 0 2ZM21 7.5v.45a.3.3 0 0 1-.3.3H3.3a.3.3 0 0 1-.3-.3V7.5a2.652 2.652 0 0 1 3-3h1.25V3a.75.75 0 0 1 1.5 0v1.5h6.5V3a.75.75 0 0 1 1.5 0v1.5H18a2.652 2.652 0 0 1 3 3Z" fill="#25314C"></path></svg>